<svg width="22" height="22" viewBox="0 0 22 22" fill="none" xmlns="http://www.w3.org/2000/svg">
<path d="M7 7.00012L7 6.50015C7 5.10456 7 4.40677 7.17225 3.83896C7.56005 2.56057 8.56045 1.56017 9.83884 1.17237C10.4066 1.00012 11.1044 1.00012 12.5 1.00012L14.6 1.00012C16.8402 1.00012 17.9603 1.00012 18.816 1.4361C19.5686 1.81959 20.1805 2.43151 20.564 3.18416C21 4.03981 21 5.15991 21 7.40012L21 14.6001C21 16.8403 21 17.9604 20.564 18.8161C20.1805 19.5687 19.5686 20.1807 18.816 20.5641C17.9603 21.0001 16.8402 21.0001 14.6 21.0001H12.5C11.1044 21.0001 10.4067 21.0001 9.83888 20.8279C8.56046 20.4401 7.56003 19.4397 7.17223 18.1612C7 17.5935 7 16.8957 7 15.5002L7 15.0001M1 11.0001H16M16 11.0001L12 7.00012M16 11.0001L12 15.0001" stroke="black" stroke-width="2" stroke-linecap="round" stroke-linejoin="round"/>
</svg>
